<?xml version="1.0" encoding="utf-8"?>
<!-- Generator: Adobe Illustrator 27.5.0, SVG Export Plug-In . SVG Version: 6.00 Build 0)  -->
<svg version="1.1" xmlns="http://www.w3.org/2000/svg" xmlns:xlink="http://www.w3.org/1999/xlink" x="0px" y="0px"
	 viewBox="0 0 500 500" style="enable-background:new 0 0 500 500;" xml:space="preserve">
<g id="BACKGROUND">
	<rect style="fill:#FFFFFF;" width="500" height="500"/>
</g>
<g id="OBJECTS">
	<g>
		<g>
			
				<ellipse transform="matrix(0.7071 -0.7071 0.7071 0.7071 36.9563 225.9324)" style="fill:#C9EDFF;" cx="291.203" cy="68.356" rx="14.085" ry="14.085"/>
			<path style="fill:#C9EDFF;" d="M464.098,172.108c0,3.086-2.501,5.587-5.587,5.587c-3.086,0-5.587-2.501-5.587-5.587
				c0-3.086,2.501-5.587,5.587-5.587C461.596,166.521,464.098,169.022,464.098,172.108z"/>
			<path style="fill:#C9EDFF;" d="M436.697,63.437c-30.815-31.603-85.048-31.844-108.657-2.065
				C304.43,91.15,302.389,81.614,283.827,89.66c-25.682,11.132-31.968,56.425-11.717,85.675c0.091,0.131,0.192,0.254,0.284,0.384
				c1.058,1.49,4.612,7.195,1.247,12.534c-3.909,6.204-10.642,35.96,29.973,40.84c43.126,5.182,41.598-9.514,59.728-9.986
				c6.188-0.161,63.203,9.015,75.149-9.181c21.353-32.526-12.458-38.659,6.107-54.327
				C452.257,149.135,475.144,102.868,436.697,63.437z"/>
		</g>
		<g>
			<g>
				<g>
					<rect x="283.827" y="166.58" style="fill:#F0B66F;" width="50.066" height="50.065"/>
					<g>
						<rect x="305.288" y="166.58" style="fill:#FFFFFF;" width="7.144" height="11.115"/>
						<rect x="305.288" y="205.961" style="fill:#FFFFFF;" width="7.144" height="10.684"/>
					</g>
				</g>
				<g>
					<rect x="298.886" y="116.455" style="fill:#F0B66F;" width="50.065" height="50.065"/>
					<g>
						<rect x="320.346" y="116.455" style="fill:#FFFFFF;" width="7.144" height="11.115"/>
						<rect x="320.346" y="155.836" style="fill:#FFFFFF;" width="7.144" height="10.684"/>
					</g>
				</g>
				<g>
					<rect x="333.442" y="166.521" style="fill:#F0B66F;" width="50.065" height="50.065"/>
					<g>
						
							<rect x="354.902" y="166.521" style="fill:#FFFFFF;stroke:#020001;stroke-width:0.75;stroke-miterlimit:10;" width="7.144" height="11.115"/>
						<rect x="354.902" y="205.902" style="fill:#FFFFFF;" width="7.144" height="10.684"/>
					</g>
				</g>
				<g>
					<g>
						<g>
							<path style="fill:#D26637;" d="M283.104,167.205c3.368,0,6.736,0,10.104,0c8.086,0,16.172,0,24.257,0
								c9.737,0,19.473,0,29.21,0c8.454,0,16.908,0,25.361,0c2.785,0,5.57,0,8.355,0c1.299,0,2.651,0.109,3.947,0
								c0.06-0.005,0.122,0,0.182,0c0.804,0,0.806-1.25,0-1.25c-3.368,0-6.736,0-10.103,0c-8.086,0-16.172,0-24.257,0
								c-9.737,0-19.473,0-29.21,0c-8.454,0-16.908,0-25.361,0c-2.785,0-5.57,0-8.355,0c-1.299,0-2.651-0.109-3.947,0
								c-0.06,0.005-0.122,0-0.182,0C282.299,165.955,282.298,167.205,283.104,167.205L283.104,167.205z"/>
						</g>
					</g>
					<g>
						<g>
							<path style="fill:#D26637;" d="M334.067,216.257c0-5.572,0-11.144,0-16.716c0-8.841,0-17.681,0-26.522
								c0-2.049,0-4.098,0-6.147c0-0.804-1.25-0.806-1.25,0c0,5.572,0,11.144,0,16.716c0,8.841,0,17.682,0,26.522
								c0,2.049,0,4.098,0,6.147C332.817,217.061,334.067,217.062,334.067,216.257L334.067,216.257z"/>
						</g>
					</g>
				</g>
			</g>
			<g>
				<g>
					<g>
						<polygon style="fill:#995E69;" points="342.609,184.047 334.622,194.792 342.27,200.477 350.889,189.009 						"/>
						<g>
							<path style="fill:#FFFFFF;" d="M335.295,213.25l-10.129-7.048c0,0-1.303-0.799-1.023-1.168
								c0.279-0.369,10.316-13.622,10.316-13.622l10.809,8.694l-3.559,5.831l2.229,5.518c0,0,0.406,0.997,0.987,1.341
								c0.581,0.345,6.014,3.566,6.014,3.566h-7.894l-1.915,0.039c0,0-1.379-0.048-2.11-0.557
								C338.288,215.334,335.295,213.25,335.295,213.25z"/>
							<g>
								<g>
									<path style="fill:#3E1D5D;" d="M329.709,197.684c0.951,0.527,1.782,1.299,2.38,2.3c1.809,3.026,0.822,6.945-2.205,8.754
										c-0.205,0.123-0.415,0.23-0.628,0.327l-5.337-3.736L329.709,197.684z"/>
									<g>
										<g>
											<line style="fill:none;stroke:#210E2C;stroke-miterlimit:10;" x1="345.218" y1="211.247" x2="341.414" y2="213.521"/>
											<line style="fill:none;stroke:#210E2C;stroke-miterlimit:10;" x1="343.843" y1="208.477" x2="340.039" y2="210.751"/>
										</g>
										<g>
											<path style="fill:none;stroke:#210E2C;stroke-miterlimit:10;" d="M342.756,206.72c0,0,7.994,1.829,8.206-0.653
												C351.303,202.075,342.756,206.72,342.756,206.72z"/>
											<line style="fill:none;stroke:#210E2C;stroke-miterlimit:10;" x1="348.348" y1="201.694" x2="342.51" y2="206.714"/>
										</g>
									</g>
								</g>
							</g>
						</g>
						<g>
							<path style="fill:#2736C9;" d="M337.927,185.614l13.044,9.326c0,0,28.708-28.426,26.728-56.004l-1.734-0.424l-12.832-3.677
								C363.133,134.835,358.796,162.979,337.927,185.614z"/>
							<g>
								<g>
									<path style="fill:#3E1D5D;" d="M342.321,180.56c3.944,2.66,7.889,5.321,11.833,7.981c0.563,0.38,1.126,0.76,1.689,1.139
										c0.401,0.271,0.777-0.379,0.379-0.648c-3.944-2.66-7.889-5.32-11.833-7.981c-0.563-0.38-1.126-0.76-1.689-1.139
										C342.298,179.641,341.923,180.291,342.321,180.56L342.321,180.56z"/>
								</g>
							</g>
						</g>
					</g>
					<g>
						<polygon style="fill:#995E69;" points="398.145,188.795 398.145,202.183 407.674,202.183 407.751,187.837 						"/>
						<g>
							<polygon style="fill:#FFFFFF;" points="425.022,216.563 395.523,216.355 396.301,198.914 410.134,199.937 410.514,206.757 
															"/>
							<path style="fill:#3E1D5D;" d="M395.951,206.773c1.082-0.106,2.205,0.058,3.265,0.543c3.207,1.465,4.619,5.252,3.154,8.458
								c-0.099,0.218-0.211,0.425-0.331,0.626l-6.515-0.046L395.951,206.773z"/>
							<g>
								<g>
									<line style="fill:none;stroke:#210E2C;stroke-miterlimit:10;" x1="416.418" y1="209.137" x2="414.577" y2="213.168"/>
									<line style="fill:none;stroke:#210E2C;stroke-miterlimit:10;" x1="413.714" y1="207.637" x2="411.872" y2="211.668"/>
								</g>
								<g>
									<path style="fill:none;stroke:#210E2C;stroke-miterlimit:10;" d="M411.77,206.71c0,0,7.619-3.031,6.385-5.195
										C416.17,198.034,411.77,206.71,411.77,206.71z"/>
									<line style="fill:none;stroke:#210E2C;stroke-miterlimit:10;" x1="413.521" y1="199.398" x2="411.564" y2="206.844"/>
								</g>
							</g>
						</g>
						<g>
							<path style="fill:#2736C9;" d="M361.284,128.865c0,0-1.938,11.28,12.876,21.46c10.031,6.893,18.088,12.263,19.468,28.052
								l0.92,12.263h17.322c0,0,0.46-22.687-9.197-38.475c-9.657-15.789-21.767-25.906-21.767-25.906L361.284,128.865z"/>
							<g>
								<g>
									<g>
										<path style="fill:#210E2C;" d="M393.995,183.654c5.129,0,10.258,0,15.388,0c0.725,0,1.451,0,2.176,0
											c0.483,0,0.483-0.75,0-0.75c-5.129,0-10.259,0-15.388,0c-0.725,0-1.451,0-2.176,0
											C393.513,182.904,393.512,183.654,393.995,183.654L393.995,183.654z"/>
									</g>
								</g>
								<g>
									<g>
										<path style="fill:#210E2C;" d="M361.146,133.332c0.326,3.813,2.615,7.604,4.975,10.474
											c5.116,6.223,12.835,9.418,18.641,14.901c1.538,1.452,2.808,3.066,3.831,4.916c0.234,0.423,0.882,0.045,0.648-0.378
											c-2.19-3.962-5.687-6.757-9.295-9.389c-3.714-2.709-7.804-4.988-11.112-8.211c-2.392-2.331-4.419-5.074-5.733-8.156
											c-0.552-1.294-1.083-2.74-1.204-4.157C361.856,132.855,361.105,132.85,361.146,133.332L361.146,133.332z"/>
									</g>
								</g>
							</g>
						</g>
					</g>
				</g>
				<g>
					<g>
						<g>
							<polygon style="fill:#AA1D21;" points="382.572,75.366 384.442,74.867 382.598,72.56 							"/>
							<path style="fill:#995E69;" d="M378.225,66.117l-3.521,0.048c-2.341,0.032-4.227,2.239-4.191,4.904l0.074,5.459
								c0.002,0.154,0.012,0.305,0.026,0.456c-0.036,0.162-0.056,0.329-0.053,0.501l0.045,3.323l0.002,0.185l0.045,3.323
								c0.016,1.206,1.016,2.179,2.222,2.163l1.397-0.019c1.206-0.016,2.179-1.016,2.163-2.222l-0.04-2.941l2.036-0.028
								c2.341-0.032,4.227-2.238,4.191-4.904l-0.074-5.459C382.511,68.24,380.566,66.085,378.225,66.117z"/>
							<path style="fill:#210E2C;" d="M366.125,64.801c1.037-0.337,1.943-0.289,2.473-0.205c0.112-0.025,0.21-0.057,0.33-0.078
								c2.693-7.985,11.29-9.611,13.278-6.901c1.987,2.71-0.578,5.889-0.578,5.889s4.914,0.867,1.88,4.625
								c-2.814,3.485-9.541,3.707-10.504,3.72c-0.174,1.325-1.061,3.145-2.316,4.429l-0.082,4.526c0,0-6.612-2.582-8.087-6.174
								C361.266,71.584,361.421,66.116,366.125,64.801z"/>
							<g>
								<path style="fill:#210E2C;" d="M378.501,73.595c-0.064,0.428,0.231,0.828,0.659,0.892c0.428,0.064,0.828-0.231,0.892-0.659
									c0.064-0.428-0.231-0.828-0.659-0.892C378.965,72.872,378.566,73.167,378.501,73.595z"/>
								<path style="fill:none;stroke:#000000;stroke-width:0.5;stroke-miterlimit:10;" d="M382.026,78.956
									c0,0-1.143,0.457-2.082-0.885"/>
							</g>
							<g>
								<path style="fill:#DE5254;" d="M362.563,66.131c-0.604,0.834-1.686,1.081-2.415,0.553c-0.73-0.529-0.831-1.633-0.227-2.467
									c0.604-0.834,1.686-1.081,2.416-0.553C363.065,64.192,363.167,65.297,362.563,66.131z"/>
								<path style="fill:#EA9C1A;" d="M367.64,61.761c0,0,3.73-9.506,8.432-8.258c4.84,1.285-2.682,11.081-2.682,11.081
									L367.64,61.761z"/>
								<path style="fill:#AA1D21;" d="M367.281,78.627l8.074-16.717c0,0-6.993-3.597-11.722,0.333S358.874,76.429,367.281,78.627z"
									/>
							</g>
							<g>
								<path style="fill:#995E69;" d="M366.125,75.998c0.021,1.536,1.293,2.764,2.841,2.743c1.548-0.021,2.787-1.283,2.766-2.819
									c-0.021-1.536-1.293-2.764-2.841-2.743C367.342,73.201,366.104,74.463,366.125,75.998z"/>
								<g>
									<g>
										<path style="fill:#210E2C;" d="M370.825,76.307c0.012-0.247-0.031-0.51-0.101-0.745c-0.145-0.482-0.458-0.918-0.927-1.127
											c-0.374-0.166-0.781-0.205-1.185-0.157c-0.194,0.023-0.385,0.156-0.375,0.375c0.008,0.183,0.166,0.399,0.375,0.375
											c0.165-0.02,0.332-0.027,0.499-0.013c0.021,0.002,0.042,0.006,0.063,0.006c-0.096-0.001-0.068-0.01-0.039-0.005
											c0.033,0.005,0.065,0.011,0.097,0.018c0.066,0.014,0.132,0.032,0.195,0.055c0.013,0.005,0.035,0.018,0.049,0.019
											c-0.002,0-0.092-0.042-0.042-0.018c0.025,0.012,0.05,0.023,0.075,0.036c0.052,0.027,0.101,0.059,0.149,0.092
											c0.074,0.051-0.069-0.06-0.004-0.002c0.019,0.017,0.038,0.033,0.056,0.05c0.039,0.037,0.073,0.077,0.108,0.117
											c0.029,0.032-0.065-0.089-0.007-0.008c0.014,0.019,0.027,0.038,0.039,0.058c0.027,0.042,0.052,0.086,0.075,0.131
											c0.01,0.02,0.02,0.04,0.029,0.06c0.04,0.089-0.022-0.058-0.007-0.017c0.016,0.044,0.033,0.087,0.047,0.132
											c0.025,0.078,0.044,0.158,0.059,0.239c0.006,0.034,0.011,0.069,0.017,0.103c-0.028-0.168-0.005-0.033-0.001,0.01
											c0.006,0.072,0.011,0.145,0.007,0.218c-0.01,0.196,0.18,0.384,0.375,0.375C370.661,76.673,370.814,76.517,370.825,76.307
											L370.825,76.307z"/>
									</g>
								</g>
							</g>
						</g>
						<g>
							<g>
								<path style="fill:#210E2C;" d="M371.537,88.486l4.18-0.047c1.096-0.012,1.976-0.911,1.964-2.007l0,0
									c-0.011-1.096-0.91-1.975-2.006-1.963l-4.18,0.047c-1.096,0.012-1.976,0.911-1.964,2.007l0,0
									C369.543,87.62,370.441,88.498,371.537,88.486z"/>
							</g>
						</g>
						<g>
							<g>
								
									<line style="fill:none;stroke:#210E2C;stroke-width:0.75;stroke-miterlimit:10;" x1="371.732" y1="74.632" x2="375.593" y2="76.697"/>
								
									<line style="fill:none;stroke:#210E2C;stroke-width:0.75;stroke-miterlimit:10;" x1="375.909" y1="78.192" x2="370.244" y2="80.307"/>
							</g>
							<path style="fill:#FFFFFF;" d="M384.442,74.103l-9.364,2.319l1.319,5.092c0,0,4.245,1.379,6.546-1.338
								C385.487,77.171,384.442,74.103,384.442,74.103z"/>
						</g>
					</g>
					<g>
						<path style="fill:#F2B411;" d="M357.081,130.088c-0.099-1.727-0.155-3.487-0.155-5.28c0-21.265,7.228-38.503,16.145-38.503
							c8.916,0,16.145,17.238,16.145,38.503c0,1.585-0.045,3.144-0.123,4.678L357.081,130.088z"/>
						<g>
							<path style="fill:#210E2C;" d="M389.195,126.244c-0.018,1.091-0.049,2.175-0.103,3.243l-32.012,0.601
								c-0.073-1.262-0.112-2.547-0.133-3.844H389.195z"/>
						</g>
					</g>
				</g>
				<g>
					<g>
						<polygon style="fill:#F0B66F;" points="428.103,114.538 387.37,121.822 380.985,84.948 421.718,77.665 						"/>
						
							<rect x="399.741" y="81.335" transform="matrix(0.9863 -0.1649 0.1649 0.9863 -8.5998 67.451)" style="fill:#FFFFFF;" width="4.444" height="8.375"/>
						
							<rect x="405.254" y="109.838" transform="matrix(0.9863 -0.1649 0.1649 0.9863 -13.2242 68.7502)" style="fill:#CFCFCD;" width="4.444" height="8.375"/>
					</g>
					<g>
						<g>
							<path style="fill:#995E69;" d="M408.452,122.434c-3.377,1.145-6.04,2.009-6.04,2.009l-3.51-7.899
								c0,0,3.566-1.058,6.605-2.471L408.452,122.434z"/>
							<path style="fill:#FFFFFF;" d="M404.033,114.716c0.721-0.298,1.449-0.62,2.132-0.96c3.154-1.569,8.652-5.821,9.061-5.072
								c0.408,0.749-3.148,4.152-3.148,4.152s8.37-3.132,8.721-2.458c0.35,0.675-4.306,3.488-4.306,3.488s5.176-1.932,5.346-1.189
								c0.17,0.743-5.023,3.214-5.023,3.214s5.436-1.785,5.477-1.058c0.041,0.727-4.543,2.781-4.543,2.781s5.299-1.736,4.529-0.553
								c-0.522,0.802-9.455,3.905-15.163,5.824L404.033,114.716z"/>
						</g>
						<g>
							<path style="fill:#00933F;" d="M400.546,116.016c0,0-14.636,2.882-19.416-16.575c-4.78-19.456-17.04-11.853-18.608,0.801
								c-1.137,9.174,0.526,14.802,9.994,22.287c9.468,7.485,27.535,3.708,31.161,1.467L400.546,116.016z"/>
							<g>
								<path style="fill:#210E2C;" d="M399.606,125.515l-3.118-9.487c2.39,0.312,4.058-0.013,4.058-0.013l3.131,7.981
									C402.904,124.475,401.47,125.022,399.606,125.515z"/>
							</g>
						</g>
					</g>
				</g>
				
					<line style="fill:none;stroke:#210E2C;stroke-width:0.75;stroke-miterlimit:10;" x1="379.277" y1="71.552" x2="377.689" y2="72.081"/>
			</g>
			<g>
				<g>
					<g>
						<path style="fill:#210E2C;" d="M265.868,217.298c1.663,0,3.326,0,4.989,0c4.552,0,9.104,0,13.657,0c6.704,0,13.408,0,20.112,0
							c8.177,0,16.354,0,24.53,0c8.956,0,17.912,0,26.868,0c9.082,0,18.164,0,27.246,0c8.429,0,16.858,0,25.287,0
							c7.124,0,14.248,0,21.372,0c5.125,0,10.251,0,15.376,0c2.425,0,4.877,0.107,7.3,0c0.106-0.005,0.213,0,0.319,0
							c0.804,0,0.806-1.25,0-1.25c-1.663,0-3.326,0-4.989,0c-4.552,0-9.105,0-13.657,0c-6.704,0-13.408,0-20.112,0
							c-8.177,0-16.354,0-24.53,0c-8.956,0-17.912,0-26.868,0c-9.082,0-18.164,0-27.246,0c-8.429,0-16.858,0-25.287,0
							c-7.124,0-14.248,0-21.372,0c-5.125,0-10.251,0-15.376,0c-2.425,0-4.877-0.107-7.3,0c-0.106,0.005-0.213,0-0.319,0
							C265.064,216.048,265.062,217.298,265.868,217.298L265.868,217.298z"/>
					</g>
				</g>
				<g>
					<g>
						<path style="fill:#210E2C;" d="M331.202,236.231c3.196,0,6.391,0,9.587,0c7.675,0,15.35,0,23.026,0c9.287,0,18.574,0,27.861,0
							c8.031,0,16.061,0,24.092,0c2.648,0,5.296,0,7.944,0c1.222,0,2.56,0.154,3.775,0c0.054-0.007,0.112,0,0.167,0
							c0.804,0,0.806-1.25,0-1.25c-3.196,0-6.392,0-9.587,0c-7.675,0-15.35,0-23.026,0c-9.287,0-18.574,0-27.861,0
							c-8.03,0-16.061,0-24.092,0c-2.648,0-5.296,0-7.944,0c-1.222,0-2.56-0.154-3.775,0c-0.054,0.007-0.112,0-0.166,0
							C330.398,234.981,330.397,236.231,331.202,236.231L331.202,236.231z"/>
					</g>
				</g>
				<g>
					<g>
						<path style="fill:#210E2C;" d="M308.15,223.361c5.495,0,10.99,0,16.485,0c8.805,0,17.61,0,26.415,0c2.011,0,4.022,0,6.032,0
							c0.804,0,0.806-1.25,0-1.25c-5.495,0-10.99,0-16.485,0c-8.805,0-17.61,0-26.415,0c-2.011,0-4.022,0-6.032,0
							C307.346,222.111,307.345,223.361,308.15,223.361L308.15,223.361z"/>
					</g>
				</g>
				<g>
					<g>
						<path style="fill:#210E2C;" d="M372.639,226.331c8.063,0,16.126,0,24.189,0c12.866,0,25.731,0,38.597,0
							c2.972,0,5.943,0,8.915,0c0.804,0,0.806-1.25,0-1.25c-8.063,0-16.126,0-24.19,0c-12.866,0-25.731,0-38.597,0
							c-2.972,0-5.943,0-8.915,0C371.835,225.081,371.834,226.331,372.639,226.331L372.639,226.331z"/>
					</g>
				</g>
			</g>
		</g>
	</g>
	<g>
		<g>
			<path style="fill:#C9EDFF;" d="M125.008,443.736c-33.849-14.792-94.006-46.025-68.033-128.367
				c23.792-75.429,147.582-84.826,193.348-53.083s78.011-17.855,150.821,22.815s35.082,129.685-10.685,155.476
				C344.692,466.367,160.433,459.217,125.008,443.736z"/>
			
				<ellipse transform="matrix(0.9267 -0.3757 0.3757 0.9267 -97.9328 41.633)" style="fill:#C9EDFF;" cx="57.788" cy="271.934" rx="15.863" ry="15.863"/>
			<circle style="fill:#C9EDFF;" cx="411.559" cy="447.812" r="13.962"/>
			
				<ellipse transform="matrix(0.1598 -0.9871 0.9871 0.1598 -360.1897 427.4692)" style="fill:#C9EDFF;" cx="71.021" cy="425.327" rx="7.729" ry="7.728"/>
		</g>
		<g>
			<g>
				<path style="fill:#7CC9EA;" d="M58.907,411.775c0,0-20.758-11.976-22.997-23.457c-1.09-5.588,6.49-14.118,26.689,7.167
					c0,0-9.339-16.507-1.738-22.154c7.602-5.647,18.679,32.161,18.679,32.161s-4.127-36.287,7.819-39.762
					c11.946-3.475,9.904,41.362,9.904,41.362s6.385-51.136,15.724-52.656c9.339-1.52,9.557,29.538,9.339,35.837
					c-0.217,6.299,11.858-25.846,20.155-24.543c8.297,1.303-6.472,46.045-6.472,46.045H58.907z"/>
				<path style="fill:#7CC9EA;" d="M368.953,424.081l76.416,1.246c0,0,29.875-18.34,25.75-26.763
					c-4.125-8.423-27.095,8.315-27.095,8.315s12.051-20.038,3.7-22.538c-8.351-2.5-19.134,16.006-19.134,16.006
					s8.112-27.128-2.881-24.117c-10.993,3.012-17.315,25.517-17.315,25.517s8.521-30.441-4.043-28.706
					c-12.564,1.735-14.434,29.041-14.434,29.041s-4.154-24.803-12.965-21.455C368.14,383.974,357.469,406.332,368.953,424.081z"/>
			</g>
			<g>
				<g>
					<g>
						<path style="fill:#210E2C;" d="M59.772,406.789c-2.563-1.723-4.982-3.69-7.317-5.707c-4.909-4.241-9.514-8.978-13.106-14.401
							c-3.181-4.801-6.465-11.273-5.316-17.227c0.793-4.11,3.877-7.2,7.692-8.708c9.817-3.88,20.674,1.705,25.744,10.347
							c1.912,3.26,3.018,6.842,3.941,10.487c0.707,2.794,1.421,5.751,1.357,8.655c-0.011,0.52-0.002,2.432-0.823,1.637
							c-1.115-1.079-1.451-3.311-1.72-4.744c-1.326-7.07-0.176-14.746,2.034-21.513c1.467-4.49,4.014-9.032,8.246-11.43
							c8.515-4.826,17.322,2.27,21.686,9.332c3.574,5.784,5.51,12.488,6.462,19.179c0.619,4.348,0.795,8.76,0.781,13.148
							c-0.009,3.012-0.093,6.075-0.636,9.046c-0.155,0.851-0.413,3.169-1.359,3.629c-0.676,0.329-1.081-0.852-1.259-1.341
							c-1.394-3.831-0.908-8.557-0.226-12.468c1.149-6.591,3.811-12.876,7.597-18.382c3.796-5.52,8.762-11.094,15.191-13.519
							c4.701-1.773,9.725-1.278,13.888,1.575c5.218,3.576,8.338,9.672,10.336,15.5c1.323,3.86,2.207,7.854,2.831,11.882
							c0.074,0.475,0.797,0.274,0.723-0.199c-1.221-7.876-3.418-16.114-8.238-22.613c-3.136-4.227-7.597-7.613-13.005-7.95
							c-5.938-0.371-11.39,2.928-15.567,6.857c-5.636,5.301-10.031,12.159-12.593,19.451c-1.847,5.257-2.938,11.08-2.352,16.663
							c0.11,1.051,0.783,6.54,3.027,5.208c1.068-0.634,1.393-2.457,1.62-3.542c0.623-2.966,0.734-6.052,0.766-9.073
							c0.09-8.557-0.633-17.25-3.525-25.361c-3.146-8.824-10.606-20.37-21.494-19.276c-12.348,1.24-15.795,17.653-16.167,27.547
							c-0.113,2.998,0.046,6.06,0.749,8.986c0.312,1.298,0.759,3.33,1.929,4.178c0.93,0.674,1.536-0.22,1.721-1.087
							c0.483-2.258-0.109-4.876-0.553-7.087c-1.431-7.124-3.787-14.298-9.188-19.422c-3.819-3.623-8.837-5.914-14.108-6.225
							c-4.466-0.263-9.222,0.925-12.583,3.994c-3.541,3.233-4.402,7.834-3.481,12.396c1.433,7.096,5.8,13.367,10.542,18.677
							c3.914,4.382,8.333,8.328,13.027,11.857c0.77,0.579,1.547,1.155,2.347,1.692C59.795,407.707,60.171,407.057,59.772,406.789
							L59.772,406.789z"/>
					</g>
				</g>
				<g>
					<g>
						<path style="fill:#210E2C;" d="M377.698,421.738c-0.562-2.949-0.855-5.966-1.072-8.957
							c-0.482-6.654-0.381-13.403,0.683-19.998c1.155-7.156,3.474-14.752,8.3-20.334c1.378-1.594,3.215-3.234,5.429-3.359
							c1.755-0.099,3.29,0.866,4.457,2.098c2.988,3.152,4.356,7.949,4.799,12.167c0.338,3.22,0.449,8.523-2.799,10.455
							c-1.255,0.746-3.253,0.913-4.318-0.247c-1.186-1.293-1.044-3.482-0.811-5.081c0.818-5.605,4.018-11.025,7.672-15.245
							c3.99-4.608,9.548-8.649,15.808-9.139c4.712-0.369,8.796,1.89,11.555,5.63c2.904,3.937,4.401,8.828,5.204,13.601
							c0.782,4.647,0.967,9.546,0.145,14.202c-0.298,1.686-0.718,3.421-1.542,4.936c-0.478,0.88-1.361,2.196-2.507,2.179
							c-1.056-0.016-1.658-1.268-1.98-2.107c-0.628-1.635-0.8-3.447-0.816-5.185c-0.047-4.772,1.249-9.661,3.77-13.72
							c3.102-4.993,8.12-8.222,13.91-9.156c4.59-0.741,9.353,0.205,12.51,3.821c3.088,3.537,4.063,8.521,4.123,13.087
							c0.155,11.858-5.347,24.115-13.884,32.255c-2.256,2.151-4.762,4.012-7.479,5.538c-0.421,0.236-0.043,0.884,0.378,0.648
							c11.518-6.465,19.197-19.037,21.238-31.932c1.412-8.924-0.014-21.993-10.816-24.126c-5.662-1.118-12.021,0.851-16.38,4.529
							c-4.155,3.505-6.68,8.655-7.657,13.944c-0.66,3.568-1.055,8.344,0.904,11.62c1.605,2.684,4.138,1.185,5.334-1.014
							c2.004-3.685,2.218-8.442,2.143-12.536c-0.098-5.344-1.011-10.8-3.074-15.749c-1.785-4.282-4.653-8.476-9.083-10.31
							c-5.35-2.215-11.465-0.232-16.048,2.835c-5.521,3.694-9.852,9.334-12.431,15.424c-0.979,2.312-1.775,4.802-1.877,7.33
							c-0.064,1.591,0.169,3.5,1.498,4.567c1.245,0.999,3.17,0.898,4.547,0.233c1.557-0.752,2.477-2.319,2.988-3.91
							c1.399-4.351,0.585-9.539-0.905-13.754c-1.216-3.439-3.559-8.06-7.637-8.594c-5.464-0.714-9.347,6.407-11.261,10.401
							c-3.399,7.091-4.701,15.06-5.029,22.861c-0.247,5.871,0.059,11.779,0.862,17.599c0.124,0.9,0.254,1.802,0.424,2.695
							C377.065,422.411,377.788,422.211,377.698,421.738L377.698,421.738z"/>
					</g>
				</g>
			</g>
		</g>
		<g>
			<g>
				<g>
					<g>
						<g>
							<path style="fill:#020001;" d="M67.557,444.361c3.246,0,6.492,0,9.738,0c8.755,0,17.51,0,26.264,0c12.98,0,25.96,0,38.939,0
								c15.836,0,31.672,0,47.508,0c17.284,0,34.568,0,51.852,0c17.566,0,35.131,0,52.697,0c16.267,0,32.533,0,48.8,0
								c13.796,0,27.591,0,41.387,0c9.918,0,19.837,0,29.755,0c4.687,0,9.378,0.065,14.064,0c0.205-0.003,0.41,0,0.615,0
								c0.804,0,0.806-1.25,0-1.25c-3.246,0-6.492,0-9.738,0c-8.755,0-17.51,0-26.264,0c-12.98,0-25.96,0-38.939,0
								c-15.836,0-31.672,0-47.508,0c-17.284,0-34.568,0-51.852,0c-17.566,0-35.131,0-52.697,0c-16.267,0-32.533,0-48.8,0
								c-13.796,0-27.591,0-41.387,0c-9.918,0-19.837,0-29.755,0c-4.687,0-9.378-0.065-14.064,0c-0.205,0.003-0.41,0-0.615,0
								C66.753,443.111,66.752,444.361,67.557,444.361L67.557,444.361z"/>
						</g>
					</g>
					<g>
						<g>
							<path style="fill:#020001;" d="M239.29,453.014c5.015,0,10.03,0,15.045,0c11.998,0,23.996,0,35.993,0
								c14.507,0,29.014,0,43.521,0c12.571,0,25.142,0,37.714,0c4.117,0,8.234,0,12.352,0c1.949,0,3.93,0.103,5.878,0
								c0.087-0.005,0.176,0,0.263,0c0.804,0,0.806-1.25,0-1.25c-5.015,0-10.03,0-15.045,0c-11.998,0-23.996,0-35.993,0
								c-14.507,0-29.014,0-43.521,0c-12.571,0-25.142,0-37.714,0c-4.117,0-8.234,0-12.352,0c-1.949,0-3.93-0.103-5.878,0
								c-0.087,0.005-0.176,0-0.263,0C238.486,451.764,238.484,453.014,239.29,453.014L239.29,453.014z"/>
						</g>
					</g>
					<g>
						<g>
							<path style="fill:#020001;" d="M125.008,453.014c2.865,0,5.729,0,8.594,0c6.923,0,13.847,0,20.77,0
								c8.338,0,16.676,0,25.014,0c7.213,0,14.426,0,21.639,0c2.392,0,4.784,0,7.176,0c1.102,0,2.308,0.141,3.404,0
								c0.048-0.006,0.099,0,0.148,0c0.804,0,0.806-1.25,0-1.25c-2.865,0-5.73,0-8.594,0c-6.923,0-13.847,0-20.77,0
								c-8.338,0-16.676,0-25.014,0c-7.213,0-14.426,0-21.639,0c-2.392,0-4.784,0-7.176,0c-1.102,0-2.308-0.141-3.404,0
								c-0.048,0.006-0.099,0-0.148,0C124.203,451.764,124.202,453.014,125.008,453.014L125.008,453.014z"/>
						</g>
					</g>
					<g>
						<g>
							<path style="fill:#020001;" d="M191.258,462.399c2.865,0,5.73,0,8.594,0c6.923,0,13.847,0,20.77,0c8.338,0,16.676,0,25.014,0
								c7.213,0,14.426,0,21.639,0c2.392,0,4.784,0,7.176,0c1.102,0,2.308,0.141,3.404,0c0.048-0.006,0.099,0,0.148,0
								c0.804,0,0.806-1.25,0-1.25c-2.865,0-5.729,0-8.594,0c-6.923,0-13.847,0-20.77,0c-8.338,0-16.676,0-25.014,0
								c-7.213,0-14.426,0-21.639,0c-2.392,0-4.784,0-7.176,0c-1.102,0-2.308-0.141-3.404,0c-0.048,0.006-0.099,0-0.148,0
								C190.454,461.149,190.453,462.399,191.258,462.399L191.258,462.399z"/>
						</g>
					</g>
				</g>
				<g>
					<g>
						<g>
							<path style="fill:#210E2C;" d="M113.94,326.121c7.591,0,15.182,0,22.773,0c1.104,0,2.207,0,3.311,0
								c0.804,0,0.806-1.25,0-1.25c-7.591,0-15.182,0-22.773,0c-1.104,0-2.207,0-3.311,0
								C113.136,324.871,113.134,326.121,113.94,326.121L113.94,326.121z"/>
						</g>
					</g>
					<g>
						<g>
							<path style="fill:#210E2C;" d="M96.445,334.321c7.591,0,15.182,0,22.773,0c1.104,0,2.207,0,3.311,0
								c0.804,0,0.806-1.25,0-1.25c-7.591,0-15.182,0-22.773,0c-1.104,0-2.207,0-3.311,0
								C95.64,333.071,95.639,334.321,96.445,334.321L96.445,334.321z"/>
						</g>
					</g>
					<g>
						<g>
							<path style="fill:#210E2C;" d="M104.997,350.085c7.591,0,15.182,0,22.773,0c1.104,0,2.207,0,3.311,0
								c0.804,0,0.806-1.25,0-1.25c-7.591,0-15.182,0-22.773,0c-1.104,0-2.207,0-3.311,0
								C104.193,348.835,104.191,350.085,104.997,350.085L104.997,350.085z"/>
						</g>
					</g>
				</g>
			</g>
			<g>
				<g>
					<g>
						<ellipse style="fill:none;stroke:#000000;stroke-miterlimit:10;" cx="368.287" cy="357.927" rx="4.608" ry="8.467"/>
						<line style="fill:none;stroke:#000000;stroke-miterlimit:10;" x1="367.344" y1="358.967" x2="378.044" y2="363.941"/>
					</g>
					<g>
						
							<line style="fill:none;stroke:#210E2C;stroke-width:0.5;stroke-miterlimit:10;" x1="358.438" y1="321.606" x2="358.438" y2="332.284"/>
						<path style="fill:#00933F;" d="M358.438,334.008h-1.62c-0.408,0-0.663-0.442-0.459-0.795l0.81-1.403l0.81-1.403
							c0.204-0.353,0.714-0.353,0.918,0l0.81,1.403l0.81,1.403c0.204,0.353-0.051,0.795-0.459,0.795H358.438z"/>
						<path style="fill:#00933F;" d="M358.438,330.303h-1.62c-0.408,0-0.663-0.442-0.459-0.795l0.81-1.403l0.81-1.403
							c0.204-0.353,0.714-0.353,0.918,0l0.81,1.403l0.81,1.403c0.204,0.353-0.051,0.795-0.459,0.795H358.438z"/>
					</g>
				</g>
				<g>
					<g>
						<g>
							<g>
								<polygon style="fill:#DE5254;" points="342.559,337.08 343.781,336.754 342.576,335.245 								"/>
								<path style="fill:#F2B39F;" d="M339.717,331.034l-2.302,0.031c-1.53,0.021-2.763,1.463-2.739,3.205l0.048,3.568
									c0.001,0.101,0.008,0.2,0.017,0.298c-0.023,0.106-0.036,0.215-0.035,0.327l0.029,2.172l0.002,0.121l0.029,2.172
									c0.011,0.788,0.664,1.424,1.452,1.414l0.913-0.013c0.788-0.011,1.424-0.664,1.413-1.452l-0.026-1.922l1.331-0.018
									c1.53-0.021,2.763-1.463,2.739-3.206l-0.048-3.568C342.519,332.422,341.248,331.013,339.717,331.034z"/>
								<path style="fill:#210E2C;" d="M334.743,341.098c0,0-5.425-1.715-5.682-5.852c-0.257-4.138,2.85-5.421,4.58-5.256
									c0,0,3.06-4.493,7.277-4.493c4.217,0,5.499,4.344,3.513,6.121c-1.986,1.777-7.411,1.455-7.411,1.455
									s-1.313,3.921-2.295,4.766L334.743,341.098z"/>
								<g>
									<path d="M339.898,335.922c-0.042,0.28,0.151,0.541,0.431,0.583c0.28,0.042,0.541-0.151,0.583-0.431
										c0.042-0.28-0.151-0.541-0.431-0.583C340.201,335.449,339.94,335.642,339.898,335.922z"/>
									<path style="fill:none;stroke:#000000;stroke-width:0.5;stroke-miterlimit:10;" d="M342.202,339.426
										c0,0-0.747,0.299-1.361-0.578"/>
								</g>
								<g>
									<path style="fill:#DE5254;" d="M329.881,332.358c-0.382,0.527-1.065,0.683-1.526,0.349
										c-0.461-0.334-0.525-1.032-0.143-1.559s1.065-0.683,1.526-0.349C330.199,331.133,330.263,331.831,329.881,332.358z"/>
									<path style="fill:#EA9C1A;" d="M333.09,329.597c0,0,2.357-6.007,5.329-5.218c3.059,0.812-1.695,7.003-1.695,7.003
										L333.09,329.597z"/>
									<path style="fill:#AA1D21;" d="M332.863,340.255l5.102-10.564c0,0-4.419-2.273-7.407,0.21
										C327.57,332.384,327.55,338.866,332.863,340.255z"/>
								</g>
								<g>
									<path style="fill:#F2B39F;" d="M331.808,337.493c0.014,1.004,0.845,1.806,1.857,1.793c1.012-0.014,1.821-0.839,1.808-1.842
										c-0.014-1.004-0.845-1.807-1.857-1.793C332.604,335.664,331.795,336.489,331.808,337.493z"/>
									<g>
										<g>
											<path style="fill:#210E2C;" d="M335.01,337.694c0.009-0.173-0.022-0.357-0.071-0.522
												c-0.103-0.345-0.33-0.664-0.666-0.814c-0.266-0.118-0.552-0.154-0.84-0.12c-0.103,0.012-0.189,0.034-0.265,0.11
												c-0.065,0.065-0.114,0.172-0.11,0.265c0.004,0.097,0.036,0.198,0.11,0.265c0.068,0.063,0.169,0.121,0.265,0.11
												c0.127-0.015,0.254-0.018,0.381-0.003c-0.033-0.005-0.067-0.009-0.1-0.013c0.089,0.012,0.176,0.034,0.26,0.068
												c-0.03-0.013-0.06-0.025-0.09-0.038c0.068,0.029,0.132,0.066,0.191,0.111c-0.025-0.02-0.05-0.039-0.076-0.059
												c0.053,0.042,0.1,0.09,0.142,0.142c-0.019-0.025-0.039-0.051-0.059-0.076c0.053,0.069,0.095,0.144,0.129,0.224
												c-0.013-0.03-0.025-0.06-0.038-0.09c0.044,0.106,0.072,0.218,0.087,0.332c-0.004-0.033-0.009-0.066-0.013-0.1
												c0.009,0.068,0.016,0.139,0.012,0.208c-0.01,0.196,0.18,0.384,0.375,0.375C334.847,338.06,335,337.905,335.01,337.694
												L335.01,337.694z"/>
										</g>
									</g>
								</g>
							</g>
							<g>
								<g>
									<path style="fill:#210E2C;" d="M335.157,345.152l3.1-0.035c0.615-0.007,1.108-0.511,1.101-1.126l-0.004-0.368
										c-0.007-0.615-0.511-1.108-1.126-1.101l-3.1,0.035c-0.615,0.007-1.108,0.511-1.101,1.126l0.004,0.368
										C334.038,344.666,334.542,345.159,335.157,345.152z"/>
								</g>
							</g>
							<g>
								<path style="fill:#FFFFFF;" d="M343.877,336.163l-6.681,1.358l1.438,3.615c0,0,2.453,0.864,3.958-0.913
									C344.254,338.259,343.877,336.163,343.877,336.163z"/>
								<g>
									
										<line style="fill:none;stroke:#210E2C;stroke-width:0.75;stroke-miterlimit:10;" x1="335.473" y1="336.6" x2="337.661" y2="337.769"/>
									
										<line style="fill:none;stroke:#210E2C;stroke-width:0.75;stroke-miterlimit:10;" x1="337.965" y1="339.015" x2="334.327" y2="340.374"/>
								</g>
							</g>
						</g>
					</g>
					
						<line style="fill:none;stroke:#000000;stroke-width:0.75;stroke-miterlimit:10;" x1="340.405" y1="334.586" x2="339.367" y2="334.932"/>
					<g>
						<path style="fill:#EA9C1A;" d="M325.897,372.847c-0.065-1.129-0.101-2.28-0.101-3.451c0-13.899,4.725-25.167,10.552-25.167
							c5.828,0,10.553,11.267,10.553,25.167c0,1.036-0.029,2.055-0.08,3.058L325.897,372.847z"/>
					</g>
					<g>
						<g>
							<g>
								<path style="fill:#F2B39F;" d="M361.621,365.837c-2.116,0.976-3.788,1.721-3.788,1.721l-2.824-4.893
									c0,0,2.245-0.933,4.123-2.061L361.621,365.837z"/>
								<path style="fill:#FFFFFF;" d="M358.219,361.125c0.448-0.243,0.899-0.502,1.32-0.77c1.942-1.237,5.224-4.378,5.541-3.919
									c0.317,0.459-1.761,2.915-1.761,2.915s5.225-2.611,5.5-2.197c0.274,0.414-2.559,2.563-2.559,2.563s3.232-1.612,3.393-1.141
									c0.162,0.471-3.044,2.434-3.044,2.434s3.411-1.534,3.488-1.064c0.077,0.47-2.762,2.12-2.762,2.12s3.325-1.493,2.906-0.671
									c-0.284,0.557-5.878,3.188-9.456,4.827L358.219,361.125z"/>
							</g>
							<g>
								<path style="fill:#00933F;" d="M356.042,362.209c0,0-9.315,2.879-13.759-9.439c-4.444-12.318-11.891-6.534-12.04,1.8
									c-0.108,6.042,1.359,9.585,8.028,13.8c6.669,4.214,18.153,0.518,20.355-1.188L356.042,362.209z"/>
								<g>
									<path style="fill:#210E2C;" d="M356.083,368.448l-2.679-5.952c1.575,0.038,2.637-0.288,2.637-0.288l2.583,4.973
										C358.155,367.545,357.261,368,356.083,368.448z"/>
								</g>
							</g>
						</g>
					</g>
				</g>
				<g>
					<path style="fill:#F2B411;" d="M413.474,371.212c-5.352-3.521-21.743-11.618-22.14-12.904l-18.301-38.374
						c-0.532-1.72-2.123-2.894-3.924-2.894h-48.844h-9.644c-2.229,0-4.051,1.777-4.107,4.006l-2.106,84.624
						c-0.057,2.302,1.789,4.202,4.092,4.21l107.948,0.384c2.465,0.009,4.383-2.14,4.094-4.588l-3.486-29.613
						C416.868,374.461,415.562,372.586,413.474,371.212z M327.277,362.656l-3.247-35.887c-0.218-2.405,1.676-4.478,4.091-4.478
						h33.351c1.736,0,3.285,1.091,3.869,2.726l12.817,35.887c0.956,2.675-1.028,5.49-3.868,5.49h-42.921
						C329.243,366.394,327.468,364.772,327.277,362.656z"/>
					<g>
						<g>
							<polyline style="fill:none;stroke:#D27F02;stroke-miterlimit:10;" points="364.997,373.787 328.035,373.787 328.035,399.785 
															"/>
							<path style="fill:none;stroke:#D27F02;stroke-miterlimit:10;" d="M345.529,400.733c0,0,7.119-9.407,19.468-8.177"/>
							<line style="fill:none;stroke:#D27F02;stroke-miterlimit:10;" x1="332.493" y1="378.613" x2="343.267" y2="378.613"/>
							<path style="fill:#F0E0EB;" d="M417.192,377.212h-12.197c-2.301,0-4.167,1.866-4.167,4.167v2.839
								c0,2.301,1.866,4.167,4.167,4.167h13.512L417.192,377.212z"/>
						</g>
					</g>
				</g>
				<g>
					<rect x="135.309" y="279.342" style="fill:#DE5254;" width="182.337" height="133.308"/>
					<rect x="135.309" y="372.847" style="fill:#AA1D21;" width="182.337" height="15.538"/>
					
						<text transform="matrix(1 0 0 1 159.046 344.3417)" style="fill:#FFFFFF; font-family:'Montserrat-BlackItalic'; font-size:22.4904px; letter-spacing:1;">DELIVERY</text>
				</g>
				<path style="fill:#3E1D5D;" d="M421.526,416.637H130.968c-2.201,0-3.986-1.785-3.986-3.986l0,0c0-2.201,1.785-3.986,3.986-3.986
					h290.558c2.201,0,3.986,1.785,3.986,3.986l0,0C425.512,414.852,423.727,416.637,421.526,416.637z"/>
				<g>
					<g>
						
							<ellipse transform="matrix(0.1776 -0.9841 0.9841 0.1776 -111.2431 705.8906)" style="fill:#3E1D5D;" cx="366.73" cy="419.505" rx="23.728" ry="23.728"/>
						
							<ellipse transform="matrix(0.1609 -0.987 0.987 0.1609 -106.3216 713.9488)" style="fill:#F0DFEE;stroke:#210E2C;stroke-miterlimit:10;" cx="366.73" cy="419.505" rx="14.728" ry="14.728"/>
						<path style="fill:#3E1D5D;" d="M369.963,419.505c0,1.785-1.447,3.233-3.233,3.233c-1.785,0-3.233-1.447-3.233-3.233
							c0-1.785,1.447-3.233,3.233-3.233C368.516,416.272,369.963,417.72,369.963,419.505z"/>
						<g>
							<g>
								<path style="fill:#210E2C;" d="M344.252,419.505c0.067-9.338,5.954-17.968,14.808-21.14
									c8.833-3.164,18.824-0.466,24.887,6.68c3.419,4.029,5.223,9.197,5.261,14.459c0.012,1.608,2.512,1.612,2.5,0
									c-0.075-10.395-6.582-19.788-16.332-23.436c-9.763-3.653-21.211-0.574-27.84,7.459c-3.724,4.512-5.742,10.13-5.784,15.977
									C341.74,421.114,344.24,421.116,344.252,419.505L344.252,419.505z"/>
							</g>
						</g>
					</g>
					<g>
						
							<ellipse transform="matrix(0.1614 -0.9869 0.9869 0.1614 -257.8975 535.5162)" style="fill:#3E1D5D;" cx="186.148" cy="419.505" rx="23.728" ry="23.728"/>
						
							<ellipse transform="matrix(0.1609 -0.987 0.987 0.1609 -257.8441 535.7205)" style="fill:#F0DFEE;stroke:#210E2C;stroke-miterlimit:10;" cx="186.148" cy="419.505" rx="14.728" ry="14.728"/>
						<path style="fill:#3E1D5D;" d="M189.381,419.505c0,1.785-1.447,3.233-3.232,3.233c-1.785,0-3.233-1.447-3.233-3.233
							c0-1.785,1.447-3.233,3.233-3.233C187.934,416.272,189.381,417.72,189.381,419.505z"/>
						<g>
							<g>
								<path style="fill:#210E2C;" d="M163.67,419.505c0.068-9.338,5.954-17.968,14.808-21.14
									c8.833-3.164,18.824-0.466,24.887,6.68c3.419,4.029,5.223,9.197,5.261,14.459c0.012,1.608,2.512,1.612,2.5,0
									c-0.075-10.395-6.582-19.788-16.332-23.436c-9.763-3.653-21.211-0.574-27.84,7.459c-3.723,4.512-5.742,10.13-5.785,15.977
									C161.159,421.114,163.658,421.116,163.67,419.505L163.67,419.505z"/>
							</g>
						</g>
					</g>
				</g>
			</g>
		</g>
	</g>
	<g>
		<g>
			<path style="fill:#C9EDFF;" d="M57.788,158.45c-11.588-14.551-32.97-30.962-13.403-75.69s98.845-54.898,112.991-12.766
				c14.146,42.133,19.747,18.448,51.868,31.049c37.468,14.698,39.029,92.629,1.741,106.327
				c-14.789,5.433-27.672,16.898-42.331,20.764c-48.784,12.866-95.01,7.936-107.357-18.481
				C47.385,179.89,73.685,178.412,57.788,158.45z"/>
			
				<ellipse transform="matrix(0.1642 -0.9864 0.9864 0.1642 -2.8217 92.0365)" style="fill:#C9EDFF;" cx="52.899" cy="47.683" rx="11.304" ry="11.304"/>
		</g>
		<g>
			<g>
				<g>
					<rect x="57.788" y="110.347" style="fill:#F0B66F;" width="39.534" height="39.535"/>
					<g>
						<rect x="74.734" y="110.347" style="fill:#FFFFFF;" width="5.642" height="8.777"/>
						<rect x="74.734" y="141.445" style="fill:#FFFFFF;" width="5.642" height="8.437"/>
					</g>
				</g>
				<g>
					<rect x="67.534" y="79.316" style="fill:#F0B66F;" width="31.024" height="31.024"/>
					<g>
						<rect x="80.832" y="79.316" style="fill:#FFFFFF;" width="4.427" height="6.887"/>
						<rect x="80.832" y="103.718" style="fill:#FFFFFF;" width="4.427" height="6.621"/>
					</g>
				</g>
				<g>
					<g>
						<path style="fill:#D26637;" d="M57.788,110.972c12.446,0,24.893,0,37.34,0c1.74,0,3.479,0,5.218,0c0.804,0,0.806-1.25,0-1.25
							c-12.447,0-24.893,0-37.34,0c-1.739,0-3.479,0-5.218,0C56.984,109.722,56.982,110.972,57.788,110.972L57.788,110.972z"/>
					</g>
				</g>
			</g>
			<g>
				<g>
					<g>
						<path style="fill:#AA1D21;" d="M185.887,117.65c-0.384-0.039-0.773-0.064-1.17-0.064c-5.534,0-10.02,3.891-10.02,8.691
							c0,4.8,4.486,8.691,10.02,8.691c0.396,0,0.785-0.025,1.17-0.064V117.65z"/>
						<path style="fill:#FFFFFF;" d="M182.419,117.824v16.905c0.739,0.151,1.506,0.239,2.298,0.239c0.396,0,0.785-0.025,1.17-0.064
							V117.65c-0.384-0.039-0.773-0.064-1.17-0.064C183.925,117.586,183.158,117.674,182.419,117.824z"/>
						<g>
							<g>
								<path style="fill:#210E2C;" d="M185.262,117.65c0,5.039,0,10.077,0,15.116c0,0.713,0,1.425,0,2.138
									c0,0.804,1.25,0.806,1.25,0c0-5.039,0-10.077,0-15.116c0-0.713,0-1.425,0-2.138
									C186.512,116.845,185.262,116.844,185.262,117.65L185.262,117.65z"/>
							</g>
						</g>
					</g>
					<g>
						<g>
							
								<ellipse transform="matrix(0.1614 -0.9869 0.9869 0.1614 -21.7934 364.6801)" style="fill:#3E1D5D;stroke:#210E2C;stroke-width:2;stroke-miterlimit:10;" cx="203.681" cy="195.163" rx="23.781" ry="23.781"/>
							<circle style="fill:#F0DFEE;" cx="203.681" cy="195.163" r="14.761"/>
							<circle style="fill:#3E1D5D;" cx="203.681" cy="195.163" r="6.912"/>
							<g>
								<path style="fill:#AE93C3;" d="M202.446,186.337c-1.097,0.156-2.112-0.607-2.268-1.703
									c-0.156-1.097,0.607-2.112,1.704-2.268c1.097-0.156,2.112,0.607,2.268,1.703
									C204.305,185.165,203.543,186.181,202.446,186.337z"/>
								<path style="fill:#AE93C3;" d="M197.19,189.065c-0.758,0.808-2.027,0.849-2.835,0.091c-0.808-0.758-0.849-2.027-0.091-2.835
									c0.758-0.808,2.027-0.849,2.835-0.091C197.908,186.988,197.948,188.257,197.19,189.065z"/>
								<path style="fill:#AE93C3;" d="M194.802,194.376c-0.099,1.103-1.073,1.918-2.176,1.819
									c-1.103-0.099-1.918-1.073-1.819-2.176c0.099-1.103,1.073-1.918,2.176-1.819
									C194.087,192.298,194.901,193.273,194.802,194.376z"/>
								<path style="fill:#AE93C3;" d="M196.308,200.201c0.623,0.916,0.385,2.163-0.531,2.786c-0.916,0.623-2.163,0.385-2.786-0.531
									s-0.385-2.163,0.531-2.786C194.438,199.047,195.685,199.285,196.308,200.201z"/>
								<path style="fill:#AE93C3;" d="M200.943,203.682c1.053,0.343,1.629,1.475,1.286,2.528c-0.343,1.053-1.475,1.629-2.528,1.286
									c-1.053-0.343-1.629-1.475-1.286-2.528C198.758,203.915,199.89,203.339,200.943,203.682z"/>
								<path style="fill:#AE93C3;" d="M206.957,203.506c1.032-0.402,2.195,0.108,2.597,1.141c0.402,1.032-0.108,2.195-1.14,2.597
									c-1.032,0.402-2.195-0.108-2.597-1.141C205.414,205.07,205.925,203.908,206.957,203.506z"/>
								<path style="fill:#AE93C3;" d="M211.392,199.733c0.565-0.953,1.795-1.267,2.748-0.702c0.953,0.565,1.267,1.795,0.702,2.748
									c-0.565,0.953-1.795,1.267-2.748,0.702C211.142,201.916,210.827,200.686,211.392,199.733z"/>
								<path style="fill:#AE93C3;" d="M212.549,193.925c-0.156-1.097,0.607-2.112,1.703-2.268c1.097-0.156,2.112,0.607,2.268,1.704
									c0.156,1.097-0.607,2.112-1.704,2.268C213.72,195.784,212.704,195.022,212.549,193.925z"/>
								<path style="fill:#AE93C3;" d="M208.997,187.452c-0.156-1.097,0.607-2.112,1.704-2.268c1.097-0.156,2.112,0.607,2.268,1.704
									c0.156,1.097-0.607,2.112-1.703,2.268C210.169,189.311,209.153,188.549,208.997,187.452z"/>
							</g>
						</g>
						<path style="fill:#AA1D21;" d="M230.576,185.347c-0.781-13.886-12.347-24.908-26.503-24.908
							c-14.157,0-25.722,11.022-26.503,24.908H230.576z"/>
					</g>
					<path style="fill:#DE5254;" d="M78.75,182.764c0,0-0.368-17.951,13.789-28.063c14.157-10.112,42.537-3.677,42.537-3.677v26.321
						c0,0-1.204,9.511,12.033,10.348c3.629,0.23,7.682,0.405,10.824,0.453c8.319,0.127,14.311,0,14.311,0s3.947,1.036,5.051-12.435
						c1.103-13.471-13.037-45.306-20.959-55.21c0,0,3.052-6.142,15.306,3.199c8.65,6.595,18.478,24.401,22.2,41.481
						c1.083,4.968,1.785,13.801,1.793,20.259c0.012,10.214-8.634,12.65-8.634,12.65H80.228L78.75,182.764z"/>
					<g>
						<g>
							
								<ellipse transform="matrix(0.1614 -0.9869 0.9869 0.1614 -105.3805 266.3147)" style="fill:#3E1D5D;stroke:#210E2C;stroke-width:2;stroke-miterlimit:10;" cx="104.009" cy="195.163" rx="23.781" ry="23.781"/>
							<circle style="fill:#F0DFEE;" cx="104.009" cy="195.163" r="14.761"/>
							<circle style="fill:#3E1D5D;" cx="104.009" cy="195.163" r="6.912"/>
							<g>
								<path style="fill:#AE93C3;" d="M102.774,186.337c-1.097,0.156-2.112-0.607-2.268-1.703
									c-0.156-1.097,0.607-2.112,1.704-2.268c1.097-0.156,2.112,0.607,2.268,1.703
									C104.634,185.165,103.871,186.181,102.774,186.337z"/>
								<path style="fill:#AE93C3;" d="M97.519,189.065c-0.758,0.808-2.027,0.849-2.835,0.091c-0.808-0.758-0.849-2.027-0.091-2.835
									c0.758-0.808,2.027-0.849,2.835-0.091C98.236,186.988,98.276,188.257,97.519,189.065z"/>
								<path style="fill:#AE93C3;" d="M95.131,194.376c-0.099,1.103-1.073,1.918-2.177,1.819c-1.103-0.099-1.918-1.073-1.819-2.176
									c0.099-1.103,1.073-1.918,2.176-1.819C94.415,192.298,95.229,193.273,95.131,194.376z"/>
								<path style="fill:#AE93C3;" d="M96.636,200.201c0.623,0.916,0.385,2.163-0.531,2.786c-0.916,0.623-2.163,0.385-2.786-0.531
									c-0.623-0.916-0.385-2.163,0.531-2.786C94.766,199.047,96.013,199.285,96.636,200.201z"/>
								<path style="fill:#AE93C3;" d="M101.272,203.682c1.053,0.343,1.629,1.475,1.286,2.528c-0.343,1.053-1.475,1.629-2.528,1.286
									c-1.053-0.343-1.629-1.475-1.286-2.528C99.086,203.915,100.218,203.339,101.272,203.682z"/>
								<path style="fill:#AE93C3;" d="M107.285,203.506c1.032-0.402,2.195,0.108,2.597,1.141c0.402,1.032-0.109,2.195-1.141,2.597
									c-1.032,0.402-2.195-0.108-2.597-1.141C105.742,205.07,106.253,203.908,107.285,203.506z"/>
								<path style="fill:#AE93C3;" d="M111.72,199.733c0.565-0.953,1.795-1.267,2.748-0.702c0.953,0.565,1.267,1.795,0.702,2.748
									c-0.565,0.953-1.795,1.267-2.748,0.702S111.155,200.686,111.72,199.733z"/>
								<path style="fill:#AE93C3;" d="M112.877,193.925c-0.156-1.097,0.607-2.112,1.704-2.268c1.097-0.156,2.112,0.607,2.268,1.704
									c0.156,1.097-0.607,2.112-1.704,2.268C114.048,195.784,113.033,195.022,112.877,193.925z"/>
								<path style="fill:#AE93C3;" d="M108.034,187.452c-0.156-1.097,0.607-2.112,1.703-2.268c1.097-0.156,2.112,0.607,2.268,1.704
									c0.156,1.097-0.607,2.112-1.703,2.268C109.205,189.311,108.19,188.549,108.034,187.452z"/>
							</g>
						</g>
						<path style="fill:#AA1D21;" d="M135.076,198.233c-0.915-17.407-14.472-31.223-31.067-31.223
							c-16.594,0-30.151,13.816-31.067,31.223H135.076z"/>
					</g>
				</g>
				<g>
					<g>
						<polygon style="fill:#F2B39F;" points="148.831,163.524 148.831,175.434 157.308,175.434 157.376,162.673 						"/>
						<g>
							<polygon style="fill:#FFFFFF;" points="171.434,188.146 146.408,187.969 147.092,172.617 159.269,173.517 159.603,179.521 
															"/>
							<path style="fill:#3E1D5D;" d="M146.784,179.535c0.952-0.093,1.941,0.051,2.874,0.478c2.823,1.289,4.065,4.623,2.776,7.445
								c-0.088,0.192-0.186,0.374-0.292,0.551l-5.734-0.041L146.784,179.535z"/>
							<g>
								<g>
									<line style="fill:none;stroke:#210E2C;stroke-miterlimit:10;" x1="164.8" y1="181.615" x2="163.179" y2="185.164"/>
									<line style="fill:none;stroke:#210E2C;stroke-miterlimit:10;" x1="162.42" y1="180.295" x2="160.798" y2="183.843"/>
								</g>
								<g>
									<path style="fill:none;stroke:#210E2C;stroke-miterlimit:10;" d="M160.708,179.479c0,0,6.707-2.668,5.62-4.573
										C164.581,171.843,160.708,179.479,160.708,179.479z"/>
									<line style="fill:none;stroke:#210E2C;stroke-miterlimit:10;" x1="162.25" y1="173.043" x2="160.798" y2="179.443"/>
								</g>
							</g>
						</g>
						<g>
							<path style="fill:#2736C9;" d="M159.871,158.63L159.871,158.63c-0.148-3.097-0.932-8.997-4.444-14.977
								c-5.102-8.687-18.882-13.428-34.05-15.496c-15.168-2.068-24.977-0.022-24.977-0.022s-0.873,1.93-1.103,7.584
								c-0.094,2.313,0.965,8.779,0.965,8.779s33.572-5.034,42.848,2.465c7.298,5.9,7.298,13.898,7.298,13.898v8.324h13.494
								C159.902,169.184,160.097,161.159,159.871,158.63z"/>
							<g>
								<g>
									<path style="fill:#210E2C;" d="M146.408,164.473c3.963,0,7.926,0,11.889,0c0.56,0,1.121,0,1.681,0
										c0.804,0,0.806-1.25,0-1.25c-3.963,0-7.926,0-11.889,0c-0.561,0-1.121,0-1.681,0
										C145.603,163.223,145.602,164.473,146.408,164.473L146.408,164.473z"/>
								</g>
							</g>
						</g>
					</g>
					<g>
						<g>
							<g>
								<polygon style="fill:#DE5254;" points="119.471,75.698 121.294,75.211 119.496,72.961 								"/>
								<path style="fill:#F2B39F;" d="M115.233,66.679l-3.433,0.047c-2.283,0.031-4.121,2.183-4.086,4.781l0.072,5.322
									c0.002,0.15,0.012,0.298,0.026,0.444c-0.035,0.158-0.054,0.32-0.052,0.488l0.044,3.24l0.002,0.18l0.044,3.24
									c0.016,1.176,0.991,2.124,2.167,2.109l1.362-0.019c1.176-0.016,2.125-0.991,2.109-2.166l-0.039-2.867l1.985-0.027
									c2.283-0.031,4.121-2.183,4.086-4.782l-0.072-5.322C119.412,68.749,117.515,66.648,115.233,66.679z"/>
								<path style="fill:#210E2C;" d="M106.168,65.12c0,0,3.518-10.79,11.755-8.106c7.512,2.447,3.24,10.859,1.015,12.145
									c-1.297,0.75-6.328,2.264-8.631,2.632c0,0-1.534,4.263-2.424,4.798l-0.089,4.073c0,0-8.661-3.126-8.845-8.411
									C98.766,66.965,103.459,63.919,106.168,65.12z"/>
								<g>
									<path style="fill:#210E2C;" d="M115.502,73.971c-0.063,0.418,0.225,0.807,0.643,0.87s0.807-0.225,0.869-0.643
										c0.063-0.418-0.225-0.807-0.643-0.869C115.954,73.265,115.565,73.553,115.502,73.971z"/>
									<path style="fill:none;stroke:#000000;stroke-width:0.5;stroke-miterlimit:10;" d="M118.939,79.197
										c0,0-1.115,0.445-2.03-0.863"/>
									
										<line style="fill:none;stroke:#210E2C;stroke-width:0.75;stroke-miterlimit:10;" x1="114.439" y1="72.711" x2="115.611" y2="71.631"/>
								</g>
								<g>
									<path style="fill:#DE5254;" d="M99.961,66.693c-0.589,0.813-1.644,1.054-2.355,0.539c-0.711-0.515-0.81-1.593-0.221-2.406
										c0.589-0.813,1.644-1.054,2.355-0.539C100.452,64.803,100.551,65.88,99.961,66.693z"/>
									<path style="fill:#EA9C1A;" d="M104.912,62.432c0,0,3.637-9.268,8.222-8.051c4.719,1.253-2.615,10.804-2.615,10.804
										L104.912,62.432z"/>
									<path style="fill:#AA1D21;" d="M104.562,78.877l7.872-16.3c0,0-6.818-3.507-11.429,0.325
										C96.395,66.733,96.365,76.734,104.562,78.877z"/>
								</g>
								<g>
									<path style="fill:#F2B39F;" d="M103.435,76.314c0.02,1.497,1.261,2.695,2.77,2.674c1.51-0.021,2.717-1.251,2.697-2.748
										c-0.02-1.497-1.26-2.695-2.77-2.674C104.622,73.586,103.414,74.816,103.435,76.314z"/>
									<g>
										<g>
											<path style="fill:#210E2C;" d="M108.027,76.615c0.012-0.242-0.03-0.499-0.099-0.729c-0.141-0.472-0.449-0.9-0.908-1.104
												c-0.366-0.162-0.765-0.201-1.16-0.154c-0.194,0.023-0.385,0.156-0.375,0.375c0.008,0.184,0.166,0.399,0.375,0.375
												c0.161-0.019,0.324-0.027,0.486-0.013c0.02,0.002,0.041,0.006,0.061,0.006c-0.099-0.002-0.069-0.01-0.04-0.005
												c0.032,0.005,0.063,0.011,0.095,0.017c0.064,0.014,0.128,0.032,0.19,0.054c0.014,0.005,0.033,0.017,0.048,0.018
												c-0.001,0-0.092-0.043-0.044-0.018c0.024,0.012,0.049,0.023,0.073,0.035c0.05,0.027,0.098,0.057,0.145,0.09
												c0.073,0.051-0.07-0.061-0.006-0.004c0.018,0.016,0.037,0.032,0.054,0.049c0.038,0.036,0.071,0.075,0.106,0.114
												c0.029,0.032-0.066-0.09-0.008-0.01c0.013,0.018,0.026,0.037,0.038,0.056c0.026,0.041,0.051,0.084,0.073,0.127
												c0.01,0.019,0.019,0.039,0.028,0.059c0.04,0.088-0.023-0.06-0.008-0.019c0.016,0.043,0.032,0.085,0.046,0.129
												c0.024,0.076,0.043,0.154,0.058,0.233c0.006,0.033,0.011,0.067,0.016,0.1c-0.028-0.168-0.005-0.035-0.001,0.007
												c0.006,0.07,0.011,0.142,0.007,0.212c-0.01,0.196,0.18,0.384,0.375,0.375C107.863,76.98,108.016,76.825,108.027,76.615
												L108.027,76.615z"/>
										</g>
									</g>
								</g>
							</g>
							<g>
								<g>
									<path style="fill:#210E2C;" d="M108.713,88.49l4.075-0.046c1.069-0.012,1.926-0.888,1.914-1.957s-0.888-1.926-1.957-1.914
										l-4.075,0.046c-1.069,0.012-1.926,0.888-1.914,1.957C106.768,87.645,107.644,88.502,108.713,88.49z"/>
								</g>
							</g>
							<g>
								<g>
									
										<line style="fill:none;stroke:#210E2C;stroke-width:0.75;stroke-miterlimit:10;" x1="108.902" y1="74.982" x2="112.816" y2="77.075"/>
									
										<line style="fill:none;stroke:#210E2C;stroke-width:0.75;stroke-miterlimit:10;" x1="113.199" y1="78.368" x2="107.795" y2="80.386"/>
								</g>
								<path style="fill:#FFFFFF;" d="M121.294,74.329l-9.13,2.397l1.451,5.022c0,0,3.66,1.288,5.904-1.362
									C122,77.457,121.294,74.329,121.294,74.329z"/>
							</g>
						</g>
						<g>
							<path style="fill:#F2B411;" d="M94.617,129.052c-0.097-1.684-0.151-3.4-0.151-5.148c0-20.733,7.048-37.541,15.741-37.541
								c8.694,0,15.741,16.808,15.741,37.541c0,1.545-0.044,3.065-0.12,4.562L94.617,129.052z"/>
							<g>
								<path style="fill:#210E2C;" d="M125.929,125.304c-0.018,1.064-0.048,2.121-0.101,3.162l-31.212,0.586
									c-0.071-1.23-0.109-2.484-0.13-3.748H125.929z"/>
							</g>
						</g>
					</g>
					<g>
						<g>
							<path style="fill:#F2B39F;" d="M142.75,114.599c-2.789,0.417-6.108,0.991-8.549,1.273l2.752,8.223
								c2.467-0.773,5.87-1.803,8.635-2.604L142.75,114.599z"/>
							<path style="fill:#FFFFFF;" d="M157.721,115.462c-2.24-1.377-5.044-1.686-11.077-1.333c-1.25,0.073-3.159,0.351-5.223,0.673
								l2.552,7.162c2.689-0.793,5.093-1.472,6.008-1.663c2.8-0.587,5.626-1.121,6.075,0.534c0.448,1.655,0.107,1.97-0.752,2.013
								c-0.372,0.019-1.718-1.111-1.856,0.566c-0.04,0.489,0.291,1.115,1.585,1.471c1.839,0.506,3.113-0.327,3.884-1.356
								C160.089,121.966,160.675,117.278,157.721,115.462z"/>
							<circle style="fill:#210E2C;" cx="155.198" cy="121.133" r="2.291"/>
						</g>
						<g>
							<g>
								<path style="fill:#00933F;" d="M136.996,115.331c0,0-14.27,2.81-18.931-16.16c-4.66-18.97-16.615-11.557-18.143,0.782
									c-1.108,8.945,0.512,14.432,9.744,21.73c9.232,7.298,26.847,3.615,30.382,1.431L136.996,115.331z"/>
								<g>
									<path style="fill:#210E2C;" d="M136.08,124.593l-3.04-9.249c2.33,0.304,3.956-0.013,3.956-0.013l3.052,7.782
										C139.295,123.579,137.896,124.112,136.08,124.593z"/>
								</g>
							</g>
						</g>
					</g>
				</g>
				<path style="fill:#3E1D5D;" d="M131.434,156.405H90.047c-3.193,0-5.782-2.589-5.782-5.781v-2.915
					c0-3.193,2.589-5.781,5.782-5.781h41.386c3.193,0,5.781,2.588,5.781,5.781v2.915
					C137.215,153.816,134.627,156.405,131.434,156.405z"/>
			</g>
			<g>
				<g>
					<g>
						<path style="fill:#210E2C;" d="M48.583,220.829c1.653,0,3.305,0,4.958,0c4.47,0,8.941,0,13.411,0c6.64,0,13.281,0,19.921,0
							c8.064,0,16.128,0,24.192,0c8.873,0,17.747,0,26.62,0c8.916,0,17.832,0,26.747,0c8.352,0,16.703,0,25.055,0
							c7.025,0,14.051,0,21.077,0c5.075,0,10.15,0,15.226,0c2.385,0,4.797,0.104,7.18,0c0.103-0.004,0.208,0,0.311,0
							c0.804,0,0.806-1.25,0-1.25c-1.653,0-3.305,0-4.958,0c-4.47,0-8.941,0-13.411,0c-6.64,0-13.281,0-19.921,0
							c-8.064,0-16.128,0-24.192,0c-8.873,0-17.747,0-26.62,0c-8.916,0-17.832,0-26.747,0c-8.352,0-16.703,0-25.055,0
							c-7.026,0-14.051,0-21.077,0c-5.075,0-10.15,0-15.226,0c-2.385,0-4.796-0.104-7.18,0c-0.103,0.005-0.208,0-0.312,0
							C47.779,219.579,47.777,220.829,48.583,220.829L48.583,220.829z"/>
					</g>
				</g>
				<g>
					<g>
						<path style="fill:#210E2C;" d="M113.638,229.716c2.913,0,5.826,0,8.739,0c6.954,0,13.907,0,20.861,0
							c8.454,0,16.908,0,25.363,0c7.31,0,14.62,0,21.931,0c2.408,0,4.816,0,7.224,0c1.104,0,2.31,0.138,3.408,0
							c0.051-0.006,0.106,0,0.157,0c0.804,0,0.806-1.25,0-1.25c-2.913,0-5.826,0-8.739,0c-6.954,0-13.907,0-20.861,0
							c-8.454,0-16.909,0-25.363,0c-7.31,0-14.62,0-21.931,0c-2.408,0-4.816,0-7.224,0c-1.105,0-2.31-0.138-3.408,0
							c-0.051,0.006-0.106,0-0.158,0C112.833,228.466,112.832,229.716,113.638,229.716L113.638,229.716z"/>
					</g>
				</g>
				<g>
					<g>
						<path style="fill:#210E2C;" d="M36.456,161.98c8.837,0,17.675,0,26.512,0c1.247,0,2.494,0,3.742,0c0.804,0,0.806-1.25,0-1.25
							c-8.837,0-17.675,0-26.512,0c-1.247,0-2.494,0-3.742,0C35.651,160.73,35.65,161.98,36.456,161.98L36.456,161.98z"/>
					</g>
				</g>
				<g>
					<g>
						<path style="fill:#210E2C;" d="M53.44,170.567c5.695,0,11.391,0,17.086,0c0.805,0,1.611,0,2.416,0c0.804,0,0.806-1.25,0-1.25
							c-5.695,0-11.391,0-17.086,0c-0.805,0-1.611,0-2.416,0C52.635,169.317,52.634,170.567,53.44,170.567L53.44,170.567z"/>
					</g>
				</g>
			</g>
		</g>
	</g>
</g>
</svg>
